<svg xmlns="http://www.w3.org/2000/svg" version="1.1" xmlns:xlink="http://www.w3.org/1999/xlink" xmlns:svgjs="http://svgjs.dev/svgjs" width="1500" height="1500" viewBox="0 0 1500 1500"><g transform="matrix(1,0,0,1,-0.323615160350073,-0.3236151603499593)"><svg viewBox="0 0 343 343" data-background-color="#ffffff" preserveAspectRatio="xMidYMid meet" height="1500" width="1500" xmlns="http://www.w3.org/2000/svg" xmlns:xlink="http://www.w3.org/1999/xlink"><g id="tight-bounds" transform="matrix(1,0,0,1,0.0740000000000407,0.07400000000001228)"><svg viewBox="0 0 342.85155851775386 342.85155851775386" height="342.85155851775386" width="342.85155851775386"><g><svg></svg></g><g><svg viewBox="0 0 342.85155851775386 342.85155851775386" height="342.85155851775386" width="342.85155851775386"><g><path d="M0 171.426c0-94.676 76.75-171.426 171.426-171.426 94.676 0 171.426 76.75 171.426 171.426 0 94.676-76.75 171.426-171.426 171.426-94.676 0-171.426-76.75-171.426-171.426zM171.426 339.086c92.596 0 167.661-75.064 167.66-167.66 0-92.596-75.064-167.661-167.66-167.661-92.596 0-167.661 75.064-167.661 167.661 0 92.596 75.064 167.661 167.661 167.66z" data-fill-palette-color="tertiary" fill="#6575a8" stroke="transparent"></path><ellipse rx="164.56874808852186" ry="164.56874808852186" cx="171.42577925887693" cy="171.42577925887693" fill="#6575a8" stroke="transparent" stroke-width="0" fill-opacity="1" data-fill-palette-color="tertiary"></ellipse></g><g transform="matrix(1,0,0,1,64.84655864529837,91.02029770790291)"><svg viewBox="0 0 213.1584412271571 160.81096310194803" height="160.81096310194803" width="213.1584412271571"><g><svg viewBox="0 0 213.1584412271571 160.81096310194803" height="160.81096310194803" width="213.1584412271571"><g><svg viewBox="0 0 213.1584412271571 160.81096310194803" height="160.81096310194803" width="213.1584412271571"><g transform="matrix(1,0,0,1,0,97.43803992030229)"><svg viewBox="0 0 213.1584412271571 63.372923181645746" height="63.372923181645746" width="213.1584412271571"><g id="textblocktransform"><svg viewBox="0 0 213.1584412271571 63.372923181645746" height="63.372923181645746" width="213.1584412271571" id="textblock"><g><svg viewBox="0 0 213.1584412271571 41.75206324771619" height="41.75206324771619" width="213.1584412271571"><g transform="matrix(1,0,0,1,0,0)"><svg width="213.1584412271571" viewBox="0.4 -34 176.88 34.65" height="41.75206324771619" data-palette-color="#ffffff"><path d="M11.55 0.5L11.55 0.5Q10.95 0.5 10.33 0.3 9.7 0.1 9.3-0.65 8.9-1.4 8.9-2.95L8.9-2.95Q8.9-4.05 9.08-5.65 9.25-7.25 9.55-9.1L9.55-9.1Q9.95-11.6 10.23-14.38 10.5-17.15 10.5-20.05L10.5-20.05Q10.5-22.4 10.28-24.13 10.05-25.85 9.7-26.8L9.7-26.8Q7.8-26.75 6.1-26.55 4.4-26.35 2.65-25.9L2.65-25.9Q2.2-25.85 1.88-25.78 1.55-25.7 1.25-25.7L1.25-25.7Q0.8-25.7 0.6-25.88 0.4-26.05 0.4-26.75L0.4-26.75Q0.4-27.6 0.65-28.53 0.9-29.45 1.4-30.1L1.4-30.1Q1.9-30.8 2.58-31.13 3.25-31.45 4.05-31.55L4.05-31.55Q5.3-31.7 7.25-31.83 9.2-31.95 11.53-32.05 13.85-32.15 16.1-32.15L16.1-32.15Q19.75-32.15 21.33-32.1 22.9-32.05 23.45-31.95L23.45-31.95Q24.15-31.85 24.43-31.53 24.7-31.2 24.7-30.5L24.7-30.5Q24.7-29.15 23.5-27.8L23.5-27.8Q23-27.2 22.45-26.88 21.9-26.55 21-26.6L21-26.6Q20.2-26.7 18.65-26.75 17.1-26.8 15.2-26.8L15.2-26.8Q15.15-25.05 14.93-22.73 14.7-20.4 14.4-18.05L14.4-18.05Q14.1-15.75 13.9-13.45 13.7-11.15 13.7-9.25L13.7-9.25Q13.7-7.5 14.03-6.18 14.35-4.85 15.35-3.9L15.35-3.9Q16.05-3.2 16.05-2.4L16.05-2.4Q16.05-1.3 14.8-0.4 13.55 0.5 11.55 0.5ZM29.8 0.65L29.8 0.65Q26.35 0.65 24.27-1.23 22.2-3.1 22.2-6.75L22.2-6.75Q22.2-8.45 22.67-10.05 23.15-11.65 23.95-13.05L23.95-13.05Q23.15-12.55 22.75-12.55L22.75-12.55Q22.15-12.55 21.92-13.23 21.7-13.9 21.7-14.55L21.7-14.55Q21.7-15.7 22.17-16.38 22.65-17.05 23.1-17.4L23.1-17.4Q24.15-18.3 26.4-19.38 28.65-20.45 31.8-20.45L31.8-20.45Q36.1-20.45 38.47-18.05 40.85-15.65 40.85-11.35L40.85-11.35Q40.85-8 39.45-5.28 38.05-2.55 35.57-0.95 33.1 0.65 29.8 0.65ZM31.35-4.45L31.35-4.45Q33.85-4.45 35.57-6.03 37.3-7.6 37.3-10.2L37.3-10.2Q37.3-12.9 35.55-14.05 33.8-15.2 31.5-15.2L31.5-15.2Q30.45-15.2 29.6-15 28.75-14.8 28-14.5L28-14.5Q27.3-13.5 26.75-12.25 26.2-11 26.2-9.5L26.2-9.5Q26.2-7 27.7-5.73 29.2-4.45 31.35-4.45ZM50.95 0.65L50.95 0.65Q47.95 0.65 46.22-1.35 44.5-3.35 44.5-6.8L44.5-6.8Q44.5-9.35 45.32-11.8 46.15-14.25 47.65-16.2 49.15-18.15 51.15-19.3 53.15-20.45 55.5-20.45L55.5-20.45Q57-20.45 58.17-20 59.34-19.55 60.25-18.85L60.25-18.85Q60.2-22.25 59.9-24.95 59.59-27.65 58.45-29.95L58.45-29.95Q58.25-30.35 58.12-30.68 58-31 58-31.3L58-31.3Q58-32 58.57-32.6 59.15-33.2 60-33.6 60.84-34 61.59-34L61.59-34Q62.95-34 63.62-32.83 64.3-31.65 64.5-29.63 64.7-27.6 64.7-25L64.7-25Q64.7-21.2 64.34-18.15 64-15.1 63.7-12.8L63.7-12.8Q63.5-11.3 63.34-10.2 63.2-9.1 63.2-8.4L63.2-8.4Q63.2-4.85 66.25-4.2L66.25-4.2Q67.05-4.05 67.05-3.15L67.05-3.15Q67.05-2.6 66.72-1.75 66.4-0.9 65.55-0.23 64.7 0.45 63.09 0.45L63.09 0.45Q60.95 0.45 60.2-1 59.45-2.45 59.45-5.4L59.45-5.4Q58.05-2.85 55.9-1.1 53.75 0.65 50.95 0.65ZM52.5-4.7L52.5-4.7Q53.9-4.7 55.3-5.6 56.7-6.5 57.8-8.05L57.8-8.05Q58.45-9 58.97-10.23 59.5-11.45 59.95-12.7L59.95-12.7Q57.4-15 54.3-15L54.3-15Q51.59-15 50-13.38 48.4-11.75 48.4-9.35L48.4-9.35Q48.4-7.3 49.59-6 50.8-4.7 52.5-4.7ZM78.19 0.65L78.19 0.65Q74.74 0.65 72.67-1.23 70.59-3.1 70.59-6.75L70.59-6.75Q70.59-8.45 71.07-10.05 71.54-11.65 72.34-13.05L72.34-13.05Q71.54-12.55 71.14-12.55L71.14-12.55Q70.54-12.55 70.32-13.23 70.09-13.9 70.09-14.55L70.09-14.55Q70.09-15.7 70.57-16.38 71.04-17.05 71.49-17.4L71.49-17.4Q72.54-18.3 74.79-19.38 77.04-20.45 80.19-20.45L80.19-20.45Q84.49-20.45 86.87-18.05 89.24-15.65 89.24-11.35L89.24-11.35Q89.24-8 87.84-5.28 86.44-2.55 83.97-0.95 81.49 0.65 78.19 0.65ZM79.74-4.45L79.74-4.45Q82.24-4.45 83.97-6.03 85.69-7.6 85.69-10.2L85.69-10.2Q85.69-12.9 83.94-14.05 82.19-15.2 79.89-15.2L79.89-15.2Q78.84-15.2 77.99-15 77.14-14.8 76.39-14.5L76.39-14.5Q75.69-13.5 75.14-12.25 74.59-11 74.59-9.5L74.59-9.5Q74.59-7 76.09-5.73 77.59-4.45 79.74-4.45ZM117.29 0.65L117.29 0.65Q113.89 0.65 112.04-0.1 110.19-0.85 109.49-2.2 108.79-3.55 108.79-5.4L108.79-5.4Q108.79-6.3 108.94-7.43 109.09-8.55 109.29-10L109.29-10Q110.19-15.5 110.19-19.75L110.19-19.75Q110.19-22.55 109.96-24.53 109.74-26.5 108.64-28.3L108.64-28.3Q108.44-28.6 108.29-28.93 108.14-29.25 108.14-29.45L108.14-29.45Q108.14-30.05 108.84-30.7 109.54-31.35 110.54-31.8 111.54-32.25 112.44-32.25L112.44-32.25Q114.14-32.25 114.56-30.9 114.99-29.55 114.99-27.05L114.99-27.05Q114.99-26.1 114.79-24.03 114.59-21.95 114.19-18.75L114.19-18.75Q113.79-15.65 113.59-13.4 113.39-11.15 113.39-9.8L113.39-9.8Q113.39-7.8 113.86-6.78 114.34-5.75 115.44-5.35L115.44-5.35Q116.54-4.95 118.54-4.95L118.54-4.95Q120.69-4.95 122.64-5.33 124.59-5.7 126.44-6.5L126.44-6.5Q126.69-6.6 126.89-6.65 127.09-6.7 127.24-6.7L127.24-6.7Q127.69-6.7 128.09-6.15 128.49-5.6 128.49-4.6L128.49-4.6Q128.49-2.4 126.09-1.15L126.09-1.15Q122.89 0.65 117.29 0.65ZM135.09-24.85L135.09-24.85Q133.69-24.9 132.84-25.7 131.99-26.5 131.99-27.95L131.99-27.95Q132.04-29.5 133.04-30.48 134.04-31.45 135.59-31.4L135.59-31.4Q137.04-31.35 137.86-30.55 138.69-29.75 138.64-28.3L138.64-28.3Q138.59-26.8 137.64-25.83 136.69-24.85 135.09-24.85ZM135.14 0.5L135.14 0.5Q133.64 0.5 132.79-0.33 131.94-1.15 131.94-3.15L131.94-3.15Q131.94-4.3 132.16-5.4 132.39-6.5 132.69-7.55L132.69-7.55Q133.04-8.65 133.26-9.8 133.49-10.95 133.49-12.25L133.49-12.25Q133.49-13.15 133.24-13.98 132.99-14.8 132.14-15.2L132.14-15.2Q131.49-15.55 131.01-15.93 130.54-16.3 130.54-16.9L130.54-16.9Q130.54-17.6 131.19-18.4 131.84-19.2 132.91-19.78 133.99-20.35 135.14-20.35L135.14-20.35Q136.39-20.35 136.96-19.7 137.54-19.05 137.74-18.05 137.94-17.05 137.94-16L137.94-16Q137.94-14.4 137.69-12.88 137.44-11.35 137.19-10.05L137.19-10.05Q136.99-9.1 136.89-8.3 136.79-7.5 136.79-6.8L136.79-6.8Q136.79-5.55 137.39-4.93 137.99-4.3 139.09-3.75L139.09-3.75Q139.54-3.5 139.54-3L139.54-3Q139.54-2.6 139.14-1.75 138.74-0.9 137.76-0.2 136.79 0.5 135.14 0.5ZM149.88 0.65L149.88 0.65Q148.03 0.65 146.43 0.1 144.83-0.45 143.83-1.45 142.83-2.45 142.83-3.85L142.83-3.85Q142.83-4.6 143.21-5.28 143.58-5.95 144.43-5.95L144.43-5.95Q144.88-5.95 145.38-5.7L145.38-5.7Q146.28-5.2 147.68-4.78 149.08-4.35 150.63-4.35L150.63-4.35Q152.38-4.35 153.73-4.85 155.08-5.35 155.08-6.25L155.08-6.25Q155.08-6.95 154.06-7.25 153.03-7.55 150.63-7.9L150.63-7.9Q148.98-8.2 147.43-8.6 145.88-9 144.88-9.98 143.88-10.95 143.88-12.85L143.88-12.85Q143.88-14.7 144.91-16.43 145.93-18.15 147.98-19.3 150.03-20.45 152.98-20.45L152.98-20.45Q154.53-20.45 155.98-20.1 157.43-19.75 158.38-19.05 159.33-18.35 159.33-17.3L159.33-17.3Q159.33-16.4 158.71-15.65 158.08-14.9 157.26-14.43 156.43-13.95 155.88-13.95L155.88-13.95Q155.48-13.95 154.93-14.5L154.93-14.5Q154.08-15.2 153.06-15.48 152.03-15.75 151.03-15.75L151.03-15.75Q149.53-15.75 148.61-15.3 147.68-14.85 147.68-14.15L147.68-14.15Q147.68-13.5 148.46-13.1 149.23-12.7 150.38-12.53 151.53-12.35 152.58-12.2L152.58-12.2Q155.48-11.8 157.18-10.83 158.88-9.85 158.88-7.4L158.88-7.4Q158.88-5.5 157.81-3.63 156.73-1.75 154.71-0.55 152.68 0.65 149.88 0.65ZM170.48 0.65L170.48 0.65Q167.43 0.65 166.11-1.38 164.78-3.4 164.78-6.6L164.78-6.6Q164.78-7.75 164.91-8.85 165.03-9.95 165.18-11.05L165.18-11.05Q165.33-12.15 165.48-13.2 165.63-14.25 165.73-15.2L165.73-15.2Q164.68-14.9 163.63-14.9L163.63-14.9Q162.53-14.9 162.53-15.8L162.53-15.8Q162.53-16.75 163.38-18.13 164.23-19.5 165.51-20.85 166.78-22.2 168.06-23.13 169.33-24.05 170.23-24.05L170.23-24.05Q171.33-24.05 171.33-22.15L171.33-22.15Q171.33-21.65 171.26-21.13 171.18-20.6 171.08-20.05L171.08-20.05Q172.03-20.25 173.01-20.4 173.98-20.55 174.88-20.55L174.88-20.55Q176.03-20.55 176.66-20.15 177.28-19.75 177.28-18.6L177.28-18.6Q177.28-17.4 176.71-16.2 176.13-15 175.43-15L175.43-15Q175.28-15 174.93-15.05 174.58-15.1 174.08-15.2L174.08-15.2Q173.43-15.35 172.43-15.5 171.43-15.65 170.03-15.65L170.03-15.65Q169.68-14.1 169.41-12.48 169.13-10.85 169.13-9.55L169.13-9.55Q169.13-6.65 170.58-5.6 172.03-4.55 174.78-4.55L174.78-4.55Q175.63-4.55 175.98-4.28 176.33-4 176.33-3.3L176.33-3.3Q176.33-1.65 174.63-0.5 172.93 0.65 170.48 0.65Z" opacity="1" transform="matrix(1,0,0,1,0,0)" fill="#ffffff" class="wordmark-text-0" data-fill-palette-color="quaternary" id="text-0"></path></svg></g></svg></g><g transform="matrix(1,0,0,1,0,51.608723330984034)"><svg viewBox="0 0 213.1584412271571 11.764199850661713" height="11.764199850661713" width="213.1584412271571"><g transform="matrix(1,0,0,1,0,0)"><svg width="213.1584412271571" viewBox="2.15 -34 865.99 47.8" height="11.764199850661713" data-palette-color="#ffffff"><path d="M12.2 0.65L12.2 0.65Q7.45 0.65 5.18-0.88 2.9-2.4 2.9-6.6L2.9-6.6Q2.9-7.45 3.03-8.65 3.15-9.85 3.4-11.55L3.4-11.55Q3.8-14 4-15.93 4.2-17.85 4.2-20.15L4.2-20.15Q4.2-21.65 4.13-23.05 4.05-24.45 3.85-25.7L3.85-25.7Q3.1-25.55 2.85-25.55L2.85-25.55Q2.45-25.55 2.3-25.73 2.15-25.9 2.15-26.4L2.15-26.4Q2.15-27.45 2.4-28.48 2.65-29.5 3.1-30.15L3.1-30.15Q3.95-31.35 5.7-31.55L5.7-31.55Q7.05-31.7 9.03-31.85 11-32 13.08-32.08 15.15-32.15 16.8-32.15L16.8-32.15Q21.4-32.15 22.25-31.95L22.25-31.95Q23.55-31.75 23.55-30.55L23.55-30.55Q23.55-29.05 22.5-27.8L22.5-27.8Q21.95-27.05 21.4-26.73 20.85-26.4 19.85-26.45L19.85-26.45Q17.65-26.6 16-26.65 14.35-26.7 13.7-26.7L13.7-26.7Q12.55-26.7 11.33-26.65 10.1-26.6 8.85-26.5L8.85-26.5Q8.85-24.75 8.7-22.75 8.55-20.75 8.3-18.55L8.3-18.55Q10.6-18.7 13.5-18.78 16.4-18.85 18.65-18.85L18.65-18.85Q19.65-18.85 20.03-18.65 20.4-18.45 20.4-17.6L20.4-17.6Q20.4-16.8 19.98-15.83 19.55-14.85 18.85-14.15L18.85-14.15Q18.55-13.85 18.2-13.68 17.85-13.5 17.25-13.55L17.25-13.55Q15.1-13.65 12.38-13.7 9.65-13.75 7.6-13.7L7.6-13.7Q7.4-12.55 7.3-11.6 7.2-10.65 7.2-9.9L7.2-9.9Q7.2-7.15 8.6-6.05 10-4.95 13.2-4.95L13.2-4.95Q15.15-4.95 16.98-5.3 18.8-5.65 20.7-6.6L20.7-6.6Q21.4-7 21.75-7L21.75-7Q22.3-7 22.83-6.23 23.35-5.45 23.35-4.55L23.35-4.55Q23.35-3.45 22.53-2.48 21.7-1.5 20.35-0.8L20.35-0.8Q18.8-0.1 16.65 0.28 14.5 0.65 12.2 0.65ZM28.65 9.6L28.65 9.6Q27.7 9.6 27.2 9.13 26.7 8.65 26.75 7.4L26.75 7.4Q26.75 6.65 26.87 4.73 27 2.8 27.22 0.18 27.45-2.45 27.72-5.3 28-8.15 28.25-10.8 28.5-13.45 28.7-15.35L28.7-15.35Q28.2-15.3 27.75-15.28 27.3-15.25 26.85-15.15L26.85-15.15Q26.35-15.05 26.1-15.05L26.1-15.05Q25.5-15.05 25.3-15.78 25.1-16.5 25.1-17.15L25.1-17.15Q25.1-17.9 25.32-18.4 25.55-18.9 26.3-19.2L26.3-19.2Q26.75-19.4 27.47-19.55 28.2-19.7 29-19.8L29-19.8Q29.25-22.75 29.77-25.4 30.3-28.05 31.4-29.9L31.4-29.9Q32.55-31.8 34.52-32.9 36.5-34 38.55-34L38.55-34Q40.05-34 41.37-33.43 42.7-32.85 43.52-31.83 44.35-30.8 44.35-29.5L44.35-29.5Q44.35-28.55 43.87-27.95 43.4-27.35 42.8-27.35L42.8-27.35Q42.55-27.35 42.25-27.45 41.95-27.55 41.65-27.65L41.65-27.65Q41.1-27.9 40.27-28.08 39.45-28.25 38.5-28.25L38.5-28.25Q36.55-28.25 35.42-27.2 34.3-26.15 33.72-24.33 33.15-22.5 32.8-20.1L32.8-20.1Q33.85-20.2 35.05-20.3 36.25-20.4 37-20.4L37-20.4Q38.2-20.4 38.87-20.03 39.55-19.65 39.55-18.6L39.55-18.6Q39.55-17.95 39.32-17.07 39.1-16.2 38.65-15.53 38.2-14.85 37.6-14.85L37.6-14.85Q37.35-14.85 36.75-15L36.75-15Q36.1-15.1 35.05-15.25 34-15.4 32.4-15.45L32.4-15.45Q32.2-13.3 32.07-10.68 31.95-8.05 31.95-5.15L31.95-5.15Q31.95-2 32.15 0.3 32.35 2.6 32.55 4.05L32.55 4.05Q32.65 4.7 32.7 5.2 32.75 5.7 32.75 6L32.75 6Q32.75 7.45 32.05 8.22 31.35 9 30.4 9.3 29.45 9.6 28.65 9.6ZM43.95 9.6L43.95 9.6Q42.99 9.6 42.49 9.13 41.99 8.65 42.05 7.4L42.05 7.4Q42.05 6.65 42.17 4.73 42.3 2.8 42.52 0.18 42.74-2.45 43.02-5.3 43.3-8.15 43.55-10.8 43.8-13.45 43.99-15.35L43.99-15.35Q43.49-15.3 43.05-15.28 42.59-15.25 42.14-15.15L42.14-15.15Q41.64-15.05 41.39-15.05L41.39-15.05Q40.8-15.05 40.59-15.78 40.39-16.5 40.39-17.15L40.39-17.15Q40.39-17.9 40.62-18.4 40.84-18.9 41.59-19.2L41.59-19.2Q42.05-19.4 42.77-19.55 43.49-19.7 44.3-19.8L44.3-19.8Q44.55-22.75 45.07-25.4 45.59-28.05 46.7-29.9L46.7-29.9Q47.84-31.8 49.82-32.9 51.8-34 53.84-34L53.84-34Q55.34-34 56.67-33.43 58-32.85 58.82-31.83 59.64-30.8 59.64-29.5L59.64-29.5Q59.64-28.55 59.17-27.95 58.7-27.35 58.09-27.35L58.09-27.35Q57.84-27.35 57.55-27.45 57.25-27.55 56.95-27.65L56.95-27.65Q56.39-27.9 55.57-28.08 54.74-28.25 53.8-28.25L53.8-28.25Q51.84-28.25 50.72-27.2 49.59-26.15 49.02-24.33 48.45-22.5 48.09-20.1L48.09-20.1Q49.14-20.2 50.34-20.3 51.55-20.4 52.3-20.4L52.3-20.4Q53.49-20.4 54.17-20.03 54.84-19.65 54.84-18.6L54.84-18.6Q54.84-17.95 54.62-17.07 54.39-16.2 53.95-15.53 53.49-14.85 52.89-14.85L52.89-14.85Q52.64-14.85 52.05-15L52.05-15Q51.39-15.1 50.34-15.25 49.3-15.4 47.7-15.45L47.7-15.45Q47.49-13.3 47.37-10.68 47.24-8.05 47.24-5.15L47.24-5.15Q47.24-2 47.45 0.3 47.64 2.6 47.84 4.05L47.84 4.05Q47.95 4.7 47.99 5.2 48.05 5.7 48.05 6L48.05 6Q48.05 7.45 47.34 8.22 46.64 9 45.7 9.3 44.74 9.6 43.95 9.6ZM64.19 0.65L64.19 0.65Q60.74 0.65 58.67-1.23 56.59-3.1 56.59-6.75L56.59-6.75Q56.59-8.45 57.07-10.05 57.54-11.65 58.34-13.05L58.34-13.05Q57.54-12.55 57.14-12.55L57.14-12.55Q56.54-12.55 56.32-13.23 56.09-13.9 56.09-14.55L56.09-14.55Q56.09-15.7 56.57-16.38 57.04-17.05 57.49-17.4L57.49-17.4Q58.54-18.3 60.79-19.38 63.04-20.45 66.19-20.45L66.19-20.45Q70.49-20.45 72.87-18.05 75.24-15.65 75.24-11.35L75.24-11.35Q75.24-8 73.84-5.28 72.44-2.55 69.97-0.95 67.49 0.65 64.19 0.65ZM65.74-4.45L65.74-4.45Q68.24-4.45 69.97-6.03 71.69-7.6 71.69-10.2L71.69-10.2Q71.69-12.9 69.94-14.05 68.19-15.2 65.89-15.2L65.89-15.2Q64.84-15.2 63.99-15 63.14-14.8 62.39-14.5L62.39-14.5Q61.69-13.5 61.14-12.25 60.59-11 60.59-9.5L60.59-9.5Q60.59-7 62.09-5.73 63.59-4.45 65.74-4.45ZM82.09 0.55L82.09 0.55Q81.29 0.55 80.81 0.28 80.34 0 80.49-0.65L80.49-0.65Q81.04-2.8 81.41-5.03 81.79-7.25 81.79-9.3L81.79-9.3Q81.79-11.95 81.47-13.18 81.14-14.4 80.59-14.88 80.04-15.35 79.24-15.6L79.24-15.6Q78.89-15.75 78.61-16 78.34-16.25 78.34-16.7L78.34-16.7Q78.34-17.4 78.89-18.25 79.44-19.1 80.44-19.73 81.44-20.35 82.74-20.35L82.74-20.35Q84.44-20.35 85.11-19.18 85.79-18 85.79-16.1L85.79-16.1Q86.69-18.1 88.02-19.28 89.34-20.45 91.34-20.45L91.34-20.45Q92.69-20.45 93.59-19.85 94.49-19.25 94.49-17.9L94.49-17.9Q94.49-16.55 93.61-15.38 92.74-14.2 91.84-14.2L91.84-14.2Q91.69-14.2 91.49-14.25 91.29-14.3 91.14-14.5L91.14-14.5Q90.49-15.3 89.54-15.3L89.54-15.3Q88.09-15.3 86.99-13.4 85.89-11.5 85.79-8.15L85.79-8.15Q85.84-6.9 85.86-5.6 85.89-4.3 85.89-3.7L85.89-3.7Q85.89-1.85 84.86-0.65 83.84 0.55 82.09 0.55ZM103.04 0.65L103.04 0.65Q99.99 0.65 98.66-1.38 97.34-3.4 97.34-6.6L97.34-6.6Q97.34-7.75 97.46-8.85 97.59-9.95 97.74-11.05L97.74-11.05Q97.89-12.15 98.04-13.2 98.19-14.25 98.29-15.2L98.29-15.2Q97.24-14.9 96.19-14.9L96.19-14.9Q95.09-14.9 95.09-15.8L95.09-15.8Q95.09-16.75 95.94-18.13 96.79-19.5 98.06-20.85 99.34-22.2 100.61-23.13 101.89-24.05 102.79-24.05L102.79-24.05Q103.89-24.05 103.89-22.15L103.89-22.15Q103.89-21.65 103.81-21.13 103.74-20.6 103.64-20.05L103.64-20.05Q104.59-20.25 105.56-20.4 106.54-20.55 107.44-20.55L107.44-20.55Q108.59-20.55 109.21-20.15 109.84-19.75 109.84-18.6L109.84-18.6Q109.84-17.4 109.26-16.2 108.69-15 107.99-15L107.99-15Q107.84-15 107.49-15.05 107.14-15.1 106.64-15.2L106.64-15.2Q105.99-15.35 104.99-15.5 103.99-15.65 102.59-15.65L102.59-15.65Q102.24-14.1 101.96-12.48 101.69-10.85 101.69-9.55L101.69-9.55Q101.69-6.65 103.14-5.6 104.59-4.55 107.34-4.55L107.34-4.55Q108.19-4.55 108.54-4.28 108.89-4 108.89-3.3L108.89-3.3Q108.89-1.65 107.19-0.5 105.49 0.65 103.04 0.65ZM115.69 0.5L115.69 0.5Q114.24 0.5 113.54-0.3 112.84-1.1 112.84-3.1L112.84-3.1Q112.84-4.05 112.99-5.55 113.14-7.05 113.34-8.8L113.34-8.8Q113.64-10.95 113.86-13.3 114.09-15.65 114.09-17.8L114.09-17.8Q114.09-20.85 113.81-24.13 113.54-27.4 112.29-29.85L112.29-29.85Q111.84-30.85 111.84-31.3L111.84-31.3Q111.84-31.95 112.41-32.55 112.99-33.15 113.84-33.58 114.69-34 115.49-34L115.49-34Q116.79-34 117.44-32.83 118.09-31.65 118.29-29.63 118.49-27.6 118.49-25L118.49-25Q118.49-21.05 118.16-18.15 117.84-15.25 117.54-13.05L117.54-13.05Q117.34-11.6 117.16-10.3 116.99-9 116.99-7.95L116.99-7.95Q116.99-6.2 117.56-5.43 118.14-4.65 119.44-3.9L119.44-3.9Q119.79-3.7 119.96-3.53 120.14-3.35 120.14-3L120.14-3Q120.14-2.6 119.74-1.75 119.34-0.9 118.36-0.2 117.39 0.5 115.69 0.5ZM131.23 0.65L131.23 0.65Q127.43 0.65 125.31-1.53 123.18-3.7 123.18-7.6L123.18-7.6Q123.18-11.15 124.73-14.05 126.28-16.95 128.91-18.68 131.53-20.4 134.68-20.4L134.68-20.4Q137.68-20.4 139.48-18.93 141.28-17.45 141.28-15L141.28-15Q141.28-13.05 140.08-11.4 138.88-9.75 136.88-8.78 134.88-7.8 132.43-7.8L132.43-7.8Q129.43-7.8 127.53-9.15L127.53-9.15Q127.58-6.85 129.11-5.45 130.63-4.05 133.03-4.05L133.03-4.05Q134.48-4.05 136.01-4.58 137.53-5.1 138.63-6L138.63-6Q139.33-6.6 139.93-6.6L139.93-6.6Q140.43-6.6 140.76-6.28 141.08-5.95 141.08-5.45L141.08-5.45Q141.08-4.35 139.18-2.55L139.18-2.55Q135.83 0.65 131.23 0.65ZM131.98-11.1L131.98-11.1Q133.78-11.1 134.98-11.85 136.18-12.6 136.18-13.75L136.18-13.75Q136.18-14.7 135.38-15.23 134.58-15.75 133.18-15.75L133.18-15.75Q131.33-15.75 129.96-14.78 128.58-13.8 127.98-12.05L127.98-12.05Q128.68-11.6 129.78-11.35 130.88-11.1 131.98-11.1ZM151.73 0.65L151.73 0.65Q149.88 0.65 148.28 0.1 146.68-0.45 145.68-1.45 144.68-2.45 144.68-3.85L144.68-3.85Q144.68-4.6 145.06-5.28 145.43-5.95 146.28-5.95L146.28-5.95Q146.73-5.95 147.23-5.7L147.23-5.7Q148.13-5.2 149.53-4.78 150.93-4.35 152.48-4.35L152.48-4.35Q154.23-4.35 155.58-4.85 156.93-5.35 156.93-6.25L156.93-6.25Q156.93-6.95 155.91-7.25 154.88-7.55 152.48-7.9L152.48-7.9Q150.83-8.2 149.28-8.6 147.73-9 146.73-9.98 145.73-10.95 145.73-12.85L145.73-12.85Q145.73-14.7 146.76-16.43 147.78-18.15 149.83-19.3 151.88-20.45 154.83-20.45L154.83-20.45Q156.38-20.45 157.83-20.1 159.28-19.75 160.23-19.05 161.18-18.35 161.18-17.3L161.18-17.3Q161.18-16.4 160.56-15.65 159.93-14.9 159.11-14.43 158.28-13.95 157.73-13.95L157.73-13.95Q157.33-13.95 156.78-14.5L156.78-14.5Q155.93-15.2 154.91-15.48 153.88-15.75 152.88-15.75L152.88-15.75Q151.38-15.75 150.46-15.3 149.53-14.85 149.53-14.15L149.53-14.15Q149.53-13.5 150.31-13.1 151.08-12.7 152.23-12.53 153.38-12.35 154.43-12.2L154.43-12.2Q157.33-11.8 159.03-10.83 160.73-9.85 160.73-7.4L160.73-7.4Q160.73-5.5 159.66-3.63 158.58-1.75 156.56-0.55 154.53 0.65 151.73 0.65ZM171.18 0.65L171.18 0.65Q169.33 0.65 167.73 0.1 166.13-0.45 165.13-1.45 164.13-2.45 164.13-3.85L164.13-3.85Q164.13-4.6 164.5-5.28 164.88-5.95 165.73-5.95L165.73-5.95Q166.18-5.95 166.68-5.7L166.68-5.7Q167.58-5.2 168.98-4.78 170.38-4.35 171.93-4.35L171.93-4.35Q173.68-4.35 175.03-4.85 176.38-5.35 176.38-6.25L176.38-6.25Q176.38-6.95 175.35-7.25 174.33-7.55 171.93-7.9L171.93-7.9Q170.28-8.2 168.73-8.6 167.18-9 166.18-9.98 165.18-10.95 165.18-12.85L165.18-12.85Q165.18-14.7 166.2-16.43 167.23-18.15 169.28-19.3 171.33-20.45 174.28-20.45L174.28-20.45Q175.83-20.45 177.28-20.1 178.73-19.75 179.68-19.05 180.63-18.35 180.63-17.3L180.63-17.3Q180.63-16.4 180-15.65 179.38-14.9 178.55-14.43 177.73-13.95 177.18-13.95L177.18-13.95Q176.78-13.95 176.23-14.5L176.23-14.5Q175.38-15.2 174.35-15.48 173.33-15.75 172.33-15.75L172.33-15.75Q170.83-15.75 169.9-15.3 168.98-14.85 168.98-14.15L168.98-14.15Q168.98-13.5 169.75-13.1 170.53-12.7 171.68-12.53 172.83-12.35 173.88-12.2L173.88-12.2Q176.78-11.8 178.48-10.83 180.18-9.85 180.18-7.4L180.18-7.4Q180.18-5.5 179.1-3.63 178.03-1.75 176-0.55 173.98 0.65 171.18 0.65ZM209.82 0.65L209.82 0.65Q204.67 0.65 201.6-2.38 198.52-5.4 198.52-11.3L198.52-11.3Q198.52-13.95 199.25-16.8 199.97-19.65 201.67-22.45L201.67-22.45Q200.72-21.6 199.87-21.6L199.87-21.6Q198.42-21.6 198.42-23.9L198.42-23.9Q198.42-25.55 199.12-26.55 199.82-27.55 200.47-28.15L200.47-28.15Q201.57-29.1 203.27-30.08 204.97-31.05 207.27-31.7 209.57-32.35 212.42-32.35L212.42-32.35Q219.12-32.35 222.5-28.58 225.87-24.8 225.87-18.1L225.87-18.1Q225.87-14.15 224.72-10.75 223.57-7.35 221.45-4.8 219.32-2.25 216.37-0.8 213.42 0.65 209.82 0.65ZM211.57-4.95L211.57-4.95Q214.07-4.95 216.5-6.1 218.92-7.25 220.5-9.78 222.07-12.3 222.07-16.35L222.07-16.35Q222.07-20.15 220.62-22.43 219.17-24.7 216.95-25.73 214.72-26.75 212.27-26.75L212.27-26.75Q210.42-26.75 208.95-26.28 207.47-25.8 206.32-25.25L206.32-25.25Q205.02-23.25 203.87-20.38 202.72-17.5 202.72-14.3L202.72-14.3Q202.72-11.1 203.97-9.03 205.22-6.95 207.25-5.95 209.27-4.95 211.57-4.95ZM232.77 0.55L232.77 0.55Q231.97 0.55 231.5 0.28 231.02 0 231.17-0.65L231.17-0.65Q231.72-2.8 232.1-5.03 232.47-7.25 232.47-9.3L232.47-9.3Q232.47-11.95 232.15-13.18 231.82-14.4 231.27-14.88 230.72-15.35 229.92-15.6L229.92-15.6Q229.57-15.75 229.3-16 229.02-16.25 229.02-16.7L229.02-16.7Q229.02-17.4 229.57-18.25 230.12-19.1 231.12-19.73 232.12-20.35 233.42-20.35L233.42-20.35Q235.12-20.35 235.8-19.18 236.47-18 236.47-16.1L236.47-16.1Q237.37-18.1 238.7-19.28 240.02-20.45 242.02-20.45L242.02-20.45Q243.37-20.45 244.27-19.85 245.17-19.25 245.17-17.9L245.17-17.9Q245.17-16.55 244.3-15.38 243.42-14.2 242.52-14.2L242.52-14.2Q242.37-14.2 242.17-14.25 241.97-14.3 241.82-14.5L241.82-14.5Q241.17-15.3 240.22-15.3L240.22-15.3Q238.77-15.3 237.67-13.4 236.57-11.5 236.47-8.15L236.47-8.15Q236.52-6.9 236.55-5.6 236.57-4.3 236.57-3.7L236.57-3.7Q236.57-1.85 235.55-0.65 234.52 0.55 232.77 0.55ZM252.67 13.8L252.67 13.8Q248.92 13.8 246.72 12.25 244.52 10.7 244.52 8.25L244.52 8.25Q244.52 6.45 245.64 5.05 246.77 3.65 248.62 3.65L248.62 3.65Q249.67 3.65 249.67 4.25L249.67 4.25Q249.67 4.6 249.54 5.05 249.42 5.5 249.42 5.95L249.42 5.95Q249.42 7.35 251.02 8.03 252.62 8.7 254.87 8.7L254.87 8.7Q256.27 8.7 257.72 8.4 259.17 8.1 260.14 7.48 261.12 6.85 261.12 5.8L261.12 5.8Q261.12 4.65 259.97 4.1 258.82 3.55 257.07 3.28 255.32 3 253.49 2.78 251.67 2.55 250.37 2.05L250.37 2.05Q248.72 1.5 247.92 0.7 247.12-0.1 247.12-1.35L247.12-1.35Q247.12-3.7 249.97-5.1L249.97-5.1Q248.32-5.95 247.49-7.5 246.67-9.05 246.67-10.95L246.67-10.95Q246.67-13.4 247.94-15.55 249.22-17.7 251.74-19.07 254.27-20.45 258.07-20.45L258.07-20.45Q259.77-20.45 261.52-20.13 263.27-19.8 264.44-18.93 265.62-18.05 265.62-16.4L265.62-16.4Q265.62-15.8 265.37-15.08 265.12-14.35 264.42-14.35L264.42-14.35Q264.12-14.35 263.62-14.48 263.12-14.6 262.72-14.7L262.72-14.7Q262.82-14.2 262.89-13.6 262.97-13 262.97-12.35L262.97-12.35Q262.97-9.4 260.97-7.03 258.97-4.65 255.12-4.2L255.12-4.2Q253.72-4.1 253.04-3.88 252.37-3.65 252.37-3.1L252.37-3.1Q252.37-2.6 252.97-2.38 253.57-2.15 254.52-2.05L254.52-2.05Q257.57-1.8 259.92-1.2 262.27-0.6 263.59 0.73 264.92 2.05 264.92 4.5L264.92 4.5Q264.92 7.35 263.24 9.43 261.57 11.5 258.77 12.65 255.97 13.8 252.67 13.8ZM254.57-8.55L254.57-8.55Q256.87-8.55 258.17-9.8 259.47-11.05 259.47-13.05L259.47-13.05Q259.47-13.6 259.37-14.18 259.27-14.75 259.17-15.15L259.17-15.15Q258.37-15.4 257.62-15.48 256.87-15.55 256.17-15.55L256.17-15.55Q253.52-15.55 252.02-14.55 250.52-13.55 250.52-11.8L250.52-11.8Q250.52-10.25 251.62-9.4 252.72-8.55 254.57-8.55ZM274.12 0.65L274.12 0.65Q271.12 0.65 269.29-1.23 267.47-3.1 267.47-6.6L267.47-6.6Q267.47-9.1 268.44-11.58 269.42-14.05 271.27-16.05 273.12-18.05 275.72-19.25 278.32-20.45 281.57-20.45L281.57-20.45Q284.57-20.45 286.69-19.43 288.82-18.4 288.82-16.65L288.82-16.65Q288.82-16.2 288.72-15.48 288.62-14.75 288.47-14.3L288.47-14.3Q288.32-13.9 288.04-13.58 287.77-13.25 287.32-13.25L287.32-13.25Q287.12-13.25 286.57-13.4L286.57-13.4Q286.37-12.35 286.27-11.35 286.17-10.35 286.17-9.35L286.17-9.35Q286.17-7.45 286.74-5.98 287.32-4.5 289.02-4.15L289.02-4.15Q289.47-4.05 289.74-3.85 290.02-3.65 290.02-3L290.02-3Q290.02-2.45 289.74-1.6 289.47-0.75 288.69-0.08 287.92 0.6 286.47 0.6L286.47 0.6Q284.52 0.6 283.47-0.83 282.42-2.25 282.42-4.9L282.42-4.9Q281.07-2.45 278.99-0.9 276.92 0.65 274.12 0.65ZM275.72-4.55L275.72-4.55Q277.72-4.55 279.24-5.8 280.77-7.05 281.62-8.95L281.62-8.95Q282.17-10.15 282.47-11.58 282.77-13 282.87-14.4L282.87-14.4Q282.02-14.8 280.92-15.05 279.82-15.3 278.62-15.3L278.62-15.3Q275.57-15.3 273.59-13.5 271.62-11.7 271.62-9L271.62-9Q271.62-7 272.72-5.78 273.82-4.55 275.72-4.55ZM295.91 0.55L295.91 0.55Q294.11 0.55 294.31-0.65L294.31-0.65Q294.86-2.8 295.24-5.03 295.61-7.25 295.61-9.3L295.61-9.3Q295.61-11.95 295.29-13.18 294.96-14.4 294.41-14.88 293.86-15.35 293.06-15.6L293.06-15.6Q292.71-15.75 292.44-16 292.16-16.25 292.16-16.7L292.16-16.7Q292.16-17.4 292.71-18.25 293.26-19.1 294.29-19.73 295.31-20.35 296.61-20.35L296.61-20.35Q298.31-20.35 298.96-19.18 299.61-18 299.61-16.1L299.61-16.1Q299.61-14.85 299.36-13.3 299.11-11.75 298.86-10.5L298.86-10.5 299.01-10.45Q300.01-13.1 301.44-15.38 302.86-17.65 304.76-19.05 306.66-20.45 309.16-20.45L309.16-20.45Q311.81-20.45 313.21-18.85 314.61-17.25 314.61-14.85L314.61-14.85Q314.61-13.85 314.39-12.95 314.16-12.05 313.91-11.2L313.91-11.2Q313.66-10.4 313.49-9.55 313.31-8.7 313.31-7.85L313.31-7.85Q313.31-5 316.01-4L316.01-4Q316.71-3.7 316.71-3.1L316.71-3.1Q316.71-2.65 316.41-1.8 316.11-0.95 315.31-0.23 314.51 0.5 312.96 0.5L312.96 0.5Q310.96 0.5 309.86-0.93 308.76-2.35 308.76-4.55L308.76-4.55Q308.76-5.8 309.04-7.08 309.31-8.35 309.61-9.45L309.61-9.45Q309.81-10.3 309.99-11.13 310.16-11.95 310.16-12.6L310.16-12.6Q310.16-14.9 307.76-14.9L307.76-14.9Q305.71-14.9 304.16-13.38 302.61-11.85 301.51-9.55 300.41-7.25 299.71-4.9L299.71-4.9 299.71-3.7Q299.71-1.85 298.69-0.65 297.66 0.55 295.91 0.55ZM324.11-24.85L324.11-24.85Q322.71-24.9 321.86-25.7 321.01-26.5 321.01-27.95L321.01-27.95Q321.06-29.5 322.06-30.48 323.06-31.45 324.61-31.4L324.61-31.4Q326.06-31.35 326.89-30.55 327.71-29.75 327.66-28.3L327.66-28.3Q327.61-26.8 326.66-25.83 325.71-24.85 324.11-24.85ZM324.16 0.5L324.16 0.5Q322.66 0.5 321.81-0.33 320.96-1.15 320.96-3.15L320.96-3.15Q320.96-4.3 321.19-5.4 321.41-6.5 321.71-7.55L321.71-7.55Q322.06-8.65 322.29-9.8 322.51-10.95 322.51-12.25L322.51-12.25Q322.51-13.15 322.26-13.98 322.01-14.8 321.16-15.2L321.16-15.2Q320.51-15.55 320.04-15.93 319.56-16.3 319.56-16.9L319.56-16.9Q319.56-17.6 320.21-18.4 320.86-19.2 321.94-19.78 323.01-20.35 324.16-20.35L324.16-20.35Q325.41-20.35 325.99-19.7 326.56-19.05 326.76-18.05 326.96-17.05 326.96-16L326.96-16Q326.96-14.4 326.71-12.88 326.46-11.35 326.21-10.05L326.21-10.05Q326.01-9.1 325.91-8.3 325.81-7.5 325.81-6.8L325.81-6.8Q325.81-5.55 326.41-4.93 327.01-4.3 328.11-3.75L328.11-3.75Q328.56-3.5 328.56-3L328.56-3Q328.56-2.6 328.16-1.75 327.76-0.9 326.79-0.2 325.81 0.5 324.16 0.5ZM340.56 0.55L340.56 0.55Q338.81 0.55 337.41 0.45 336.01 0.35 334.96 0.15L334.96 0.15Q333.86-0.05 333.18-0.4 332.51-0.75 332.11-1.2L332.11-1.2Q331.81-1.55 331.61-2.15 331.41-2.75 331.41-3.25L331.41-3.25Q331.41-4.85 332.68-5.95 333.96-7.05 335.66-8.2L335.66-8.2 342.31-12.8Q343.66-13.85 343.66-14.3L343.66-14.3Q343.66-15.4 340.66-15.4L340.66-15.4Q338.66-15.4 337.46-14.93 336.26-14.45 335.81-13.8L335.81-13.8Q335.51-13.45 335.28-13.28 335.06-13.1 334.66-13.1L334.66-13.1Q333.91-13.1 333.13-13.93 332.36-14.75 332.36-16.15L332.36-16.15Q332.36-17.8 333.61-18.7 334.86-19.6 336.88-19.98 338.91-20.35 341.21-20.35L341.21-20.35Q343.71-20.35 345.48-20.08 347.26-19.8 348.36-19.1L348.36-19.1Q349.21-18.6 349.63-17.7 350.06-16.8 350.06-15.8L350.06-15.8Q350.06-14.1 348.33-12.6 346.61-11.1 343.56-9.25L343.56-9.25 337.96-5.85Q337.46-5.55 337.46-5.15L337.46-5.15Q337.46-4.6 338.16-4.55L338.16-4.55Q338.66-4.5 339.41-4.48 340.16-4.45 341.06-4.45L341.06-4.45Q345.11-4.45 347.36-5.5L347.36-5.5Q348.21-5.95 348.56-5.95L348.56-5.95Q349.11-5.95 349.63-5.28 350.16-4.6 350.16-3.55L350.16-3.55Q350.16-1.15 347.51-0.3 344.86 0.55 340.56 0.55ZM359.96 0.65L359.96 0.65Q356.96 0.65 355.13-1.23 353.31-3.1 353.31-6.6L353.31-6.6Q353.31-9.1 354.28-11.58 355.25-14.05 357.11-16.05 358.96-18.05 361.56-19.25 364.16-20.45 367.41-20.45L367.41-20.45Q370.41-20.45 372.53-19.43 374.66-18.4 374.66-16.65L374.66-16.65Q374.66-16.2 374.56-15.48 374.46-14.75 374.31-14.3L374.31-14.3Q374.16-13.9 373.88-13.58 373.61-13.25 373.16-13.25L373.16-13.25Q372.96-13.25 372.41-13.4L372.41-13.4Q372.21-12.35 372.11-11.35 372-10.35 372-9.35L372-9.35Q372-7.45 372.58-5.98 373.16-4.5 374.86-4.15L374.86-4.15Q375.31-4.05 375.58-3.85 375.86-3.65 375.86-3L375.86-3Q375.86-2.45 375.58-1.6 375.31-0.75 374.53-0.08 373.75 0.6 372.31 0.6L372.31 0.6Q370.36 0.6 369.31-0.83 368.25-2.25 368.25-4.9L368.25-4.9Q366.91-2.45 364.83-0.9 362.75 0.65 359.96 0.65ZM361.56-4.55L361.56-4.55Q363.56-4.55 365.08-5.8 366.61-7.05 367.46-8.95L367.46-8.95Q368-10.15 368.31-11.58 368.61-13 368.71-14.4L368.71-14.4Q367.86-14.8 366.75-15.05 365.66-15.3 364.46-15.3L364.46-15.3Q361.41-15.3 359.43-13.5 357.46-11.7 357.46-9L357.46-9Q357.46-7 358.56-5.78 359.66-4.55 361.56-4.55ZM386.25 0.65L386.25 0.65Q383.2 0.65 381.88-1.38 380.55-3.4 380.55-6.6L380.55-6.6Q380.55-7.75 380.68-8.85 380.8-9.95 380.95-11.05L380.95-11.05Q381.1-12.15 381.25-13.2 381.4-14.25 381.5-15.2L381.5-15.2Q380.45-14.9 379.4-14.9L379.4-14.9Q378.3-14.9 378.3-15.8L378.3-15.8Q378.3-16.75 379.15-18.13 380-19.5 381.28-20.85 382.55-22.2 383.83-23.13 385.1-24.05 386-24.05L386-24.05Q387.1-24.05 387.1-22.15L387.1-22.15Q387.1-21.65 387.03-21.13 386.95-20.6 386.85-20.05L386.85-20.05Q387.8-20.25 388.78-20.4 389.75-20.55 390.65-20.55L390.65-20.55Q391.8-20.55 392.43-20.15 393.05-19.75 393.05-18.6L393.05-18.6Q393.05-17.4 392.48-16.2 391.9-15 391.2-15L391.2-15Q391.05-15 390.7-15.05 390.35-15.1 389.85-15.2L389.85-15.2Q389.2-15.35 388.2-15.5 387.2-15.65 385.8-15.65L385.8-15.65Q385.45-14.1 385.18-12.48 384.9-10.85 384.9-9.55L384.9-9.55Q384.9-6.65 386.35-5.6 387.8-4.55 390.55-4.55L390.55-4.55Q391.4-4.55 391.75-4.28 392.1-4 392.1-3.3L392.1-3.3Q392.1-1.65 390.4-0.5 388.7 0.65 386.25 0.65ZM399.9-24.85L399.9-24.85Q398.5-24.9 397.65-25.7 396.8-26.5 396.8-27.95L396.8-27.95Q396.85-29.5 397.85-30.48 398.85-31.45 400.4-31.4L400.4-31.4Q401.85-31.35 402.68-30.55 403.5-29.75 403.45-28.3L403.45-28.3Q403.4-26.8 402.45-25.83 401.5-24.85 399.9-24.85ZM399.95 0.5L399.95 0.5Q398.45 0.5 397.6-0.33 396.75-1.15 396.75-3.15L396.75-3.15Q396.75-4.3 396.98-5.4 397.2-6.5 397.5-7.55L397.5-7.55Q397.85-8.65 398.07-9.8 398.3-10.95 398.3-12.25L398.3-12.25Q398.3-13.15 398.05-13.98 397.8-14.8 396.95-15.2L396.95-15.2Q396.3-15.55 395.82-15.93 395.35-16.3 395.35-16.9L395.35-16.9Q395.35-17.6 396-18.4 396.65-19.2 397.73-19.78 398.8-20.35 399.95-20.35L399.95-20.35Q401.2-20.35 401.78-19.7 402.35-19.05 402.55-18.05 402.75-17.05 402.75-16L402.75-16Q402.75-14.4 402.5-12.88 402.25-11.35 402-10.05L402-10.05Q401.8-9.1 401.7-8.3 401.6-7.5 401.6-6.8L401.6-6.8Q401.6-5.55 402.2-4.93 402.8-4.3 403.9-3.75L403.9-3.75Q404.35-3.5 404.35-3L404.35-3Q404.35-2.6 403.95-1.75 403.55-0.9 402.57-0.2 401.6 0.5 399.95 0.5ZM416 0.65L416 0.65Q412.55 0.65 410.47-1.23 408.4-3.1 408.4-6.75L408.4-6.75Q408.4-8.45 408.87-10.05 409.35-11.65 410.15-13.05L410.15-13.05Q409.35-12.55 408.95-12.55L408.95-12.55Q408.35-12.55 408.12-13.23 407.9-13.9 407.9-14.55L407.9-14.55Q407.9-15.7 408.37-16.38 408.85-17.05 409.3-17.4L409.3-17.4Q410.35-18.3 412.6-19.38 414.85-20.45 418-20.45L418-20.45Q422.3-20.45 424.67-18.05 427.05-15.65 427.05-11.35L427.05-11.35Q427.05-8 425.65-5.28 424.25-2.55 421.77-0.95 419.3 0.65 416 0.65ZM417.55-4.45L417.55-4.45Q420.05-4.45 421.77-6.03 423.5-7.6 423.5-10.2L423.5-10.2Q423.5-12.9 421.75-14.05 420-15.2 417.7-15.2L417.7-15.2Q416.65-15.2 415.8-15 414.95-14.8 414.2-14.5L414.2-14.5Q413.5-13.5 412.95-12.25 412.4-11 412.4-9.5L412.4-9.5Q412.4-7 413.9-5.73 415.4-4.45 417.55-4.45ZM433.69 0.55L433.69 0.55Q431.89 0.55 432.1-0.65L432.1-0.65Q432.64-2.8 433.02-5.03 433.39-7.25 433.39-9.3L433.39-9.3Q433.39-11.95 433.07-13.18 432.75-14.4 432.19-14.88 431.64-15.35 430.85-15.6L430.85-15.6Q430.5-15.75 430.22-16 429.94-16.25 429.94-16.7L429.94-16.7Q429.94-17.4 430.5-18.25 431.05-19.1 432.07-19.73 433.1-20.35 434.39-20.35L434.39-20.35Q436.1-20.35 436.75-19.18 437.39-18 437.39-16.1L437.39-16.1Q437.39-14.85 437.14-13.3 436.89-11.75 436.64-10.5L436.64-10.5 436.8-10.45Q437.8-13.1 439.22-15.38 440.64-17.65 442.55-19.05 444.44-20.45 446.94-20.45L446.94-20.45Q449.6-20.45 451-18.85 452.39-17.25 452.39-14.85L452.39-14.85Q452.39-13.85 452.17-12.95 451.94-12.05 451.69-11.2L451.69-11.2Q451.44-10.4 451.27-9.55 451.1-8.7 451.1-7.85L451.1-7.85Q451.1-5 453.8-4L453.8-4Q454.5-3.7 454.5-3.1L454.5-3.1Q454.5-2.65 454.19-1.8 453.89-0.95 453.1-0.23 452.3 0.5 450.75 0.5L450.75 0.5Q448.75 0.5 447.64-0.93 446.55-2.35 446.55-4.55L446.55-4.55Q446.55-5.8 446.82-7.08 447.1-8.35 447.39-9.45L447.39-9.45Q447.6-10.3 447.77-11.13 447.94-11.95 447.94-12.6L447.94-12.6Q447.94-14.9 445.55-14.9L445.55-14.9Q443.5-14.9 441.94-13.38 440.39-11.85 439.3-9.55 438.19-7.25 437.5-4.9L437.5-4.9 437.5-3.7Q437.5-1.85 436.47-0.65 435.44 0.55 433.69 0.55ZM474.14 9.6L474.14 9.6Q473.19 9.6 472.69 9.13 472.19 8.65 472.24 7.4L472.24 7.4Q472.24 6.65 472.37 4.73 472.49 2.8 472.72 0.18 472.94-2.45 473.22-5.3 473.49-8.15 473.74-10.8 473.99-13.45 474.19-15.35L474.19-15.35Q473.69-15.3 473.24-15.28 472.79-15.25 472.34-15.15L472.34-15.15Q471.84-15.05 471.59-15.05L471.59-15.05Q470.99-15.05 470.79-15.78 470.59-16.5 470.59-17.15L470.59-17.15Q470.59-17.9 470.81-18.4 471.04-18.9 471.79-19.2L471.79-19.2Q472.24-19.4 472.97-19.55 473.69-19.7 474.49-19.8L474.49-19.8Q474.74-22.75 475.27-25.4 475.79-28.05 476.89-29.9L476.89-29.9Q478.04-31.8 480.02-32.9 481.99-34 484.04-34L484.04-34Q485.54-34 486.87-33.43 488.19-32.85 489.02-31.83 489.84-30.8 489.84-29.5L489.84-29.5Q489.84-28.55 489.37-27.95 488.89-27.35 488.29-27.35L488.29-27.35Q488.04-27.35 487.74-27.45 487.44-27.55 487.14-27.65L487.14-27.65Q486.59-27.9 485.77-28.08 484.94-28.25 483.99-28.25L483.99-28.25Q482.04-28.25 480.92-27.2 479.79-26.15 479.22-24.33 478.64-22.5 478.29-20.1L478.29-20.1Q479.34-20.2 480.54-20.3 481.74-20.4 482.49-20.4L482.49-20.4Q483.69-20.4 484.37-20.03 485.04-19.65 485.04-18.6L485.04-18.6Q485.04-17.95 484.81-17.07 484.59-16.2 484.14-15.53 483.69-14.85 483.09-14.85L483.09-14.85Q482.84-14.85 482.24-15L482.24-15Q481.59-15.1 480.54-15.25 479.49-15.4 477.89-15.45L477.89-15.45Q477.69-13.3 477.56-10.68 477.44-8.05 477.44-5.15L477.44-5.15Q477.44-2 477.64 0.3 477.84 2.6 478.04 4.05L478.04 4.05Q478.14 4.7 478.19 5.2 478.24 5.7 478.24 6L478.24 6Q478.24 7.45 477.54 8.22 476.84 9 475.89 9.3 474.94 9.6 474.14 9.6ZM494.39 0.65L494.39 0.65Q490.94 0.65 488.86-1.23 486.79-3.1 486.79-6.75L486.79-6.75Q486.79-8.45 487.26-10.05 487.74-11.65 488.54-13.05L488.54-13.05Q487.74-12.55 487.34-12.55L487.34-12.55Q486.74-12.55 486.51-13.23 486.29-13.9 486.29-14.55L486.29-14.55Q486.29-15.7 486.76-16.38 487.24-17.05 487.69-17.4L487.69-17.4Q488.74-18.3 490.99-19.38 493.24-20.45 496.39-20.45L496.39-20.45Q500.69-20.45 503.06-18.05 505.44-15.65 505.44-11.35L505.44-11.35Q505.44-8 504.04-5.28 502.64-2.55 500.16-0.95 497.69 0.65 494.39 0.65ZM495.94-4.45L495.94-4.45Q498.44-4.45 500.16-6.03 501.89-7.6 501.89-10.2L501.89-10.2Q501.89-12.9 500.14-14.05 498.39-15.2 496.09-15.2L496.09-15.2Q495.04-15.2 494.19-15 493.34-14.8 492.59-14.5L492.59-14.5Q491.89-13.5 491.34-12.25 490.79-11 490.79-9.5L490.79-9.5Q490.79-7 492.29-5.73 493.79-4.45 495.94-4.45ZM512.29 0.55L512.29 0.55Q511.49 0.55 511.01 0.28 510.54 0 510.69-0.65L510.69-0.65Q511.24-2.8 511.61-5.03 511.99-7.25 511.99-9.3L511.99-9.3Q511.99-11.95 511.66-13.18 511.34-14.4 510.79-14.88 510.24-15.35 509.44-15.6L509.44-15.6Q509.09-15.75 508.81-16 508.54-16.25 508.54-16.7L508.54-16.7Q508.54-17.4 509.09-18.25 509.64-19.1 510.64-19.73 511.64-20.35 512.94-20.35L512.94-20.35Q514.63-20.35 515.31-19.18 515.99-18 515.99-16.1L515.99-16.1Q516.88-18.1 518.21-19.28 519.54-20.45 521.54-20.45L521.54-20.45Q522.88-20.45 523.79-19.85 524.69-19.25 524.69-17.9L524.69-17.9Q524.69-16.55 523.81-15.38 522.94-14.2 522.04-14.2L522.04-14.2Q521.88-14.2 521.69-14.25 521.49-14.3 521.34-14.5L521.34-14.5Q520.69-15.3 519.74-15.3L519.74-15.3Q518.29-15.3 517.19-13.4 516.09-11.5 515.99-8.15L515.99-8.15Q516.04-6.9 516.06-5.6 516.09-4.3 516.09-3.7L516.09-3.7Q516.09-1.85 515.06-0.65 514.04 0.55 512.29 0.55ZM544.48 0.65L544.48 0.65Q541.48 0.65 539.65-1.23 537.83-3.1 537.83-6.6L537.83-6.6Q537.83-9.1 538.8-11.58 539.78-14.05 541.63-16.05 543.48-18.05 546.08-19.25 548.68-20.45 551.93-20.45L551.93-20.45Q554.93-20.45 557.05-19.43 559.18-18.4 559.18-16.65L559.18-16.65Q559.18-16.2 559.08-15.48 558.98-14.75 558.83-14.3L558.83-14.3Q558.68-13.9 558.4-13.58 558.13-13.25 557.68-13.25L557.68-13.25Q557.48-13.25 556.93-13.4L556.93-13.4Q556.73-12.35 556.63-11.35 556.53-10.35 556.53-9.35L556.53-9.35Q556.53-7.45 557.1-5.98 557.68-4.5 559.38-4.15L559.38-4.15Q559.83-4.05 560.1-3.85 560.38-3.65 560.38-3L560.38-3Q560.38-2.45 560.1-1.6 559.83-0.75 559.05-0.08 558.28 0.6 556.83 0.6L556.83 0.6Q554.88 0.6 553.83-0.83 552.78-2.25 552.78-4.9L552.78-4.9Q551.43-2.45 549.35-0.9 547.28 0.65 544.48 0.65ZM546.08-4.55L546.08-4.55Q548.08-4.55 549.6-5.8 551.13-7.05 551.98-8.95L551.98-8.95Q552.53-10.15 552.83-11.58 553.13-13 553.23-14.4L553.23-14.4Q552.38-14.8 551.28-15.05 550.18-15.3 548.98-15.3L548.98-15.3Q545.93-15.3 543.95-13.5 541.98-11.7 541.98-9L541.98-9Q541.98-7 543.08-5.78 544.18-4.55 546.08-4.55ZM580.67 0.5L580.67 0.5Q580.07 0.5 579.45 0.3 578.82 0.1 578.42-0.65 578.02-1.4 578.02-2.95L578.02-2.95Q578.02-4.2 578.25-6.13 578.47-8.05 578.82-10.25L578.82-10.25Q579.17-12.5 579.4-15 579.62-17.5 579.62-20.05L579.62-20.05Q579.62-21.05 579.57-22.2 579.52-23.35 579.37-24.45L579.37-24.45Q579.02-24.25 578.7-24.13 578.37-24 578.07-24L578.07-24Q577.22-24 577.22-25.65L577.22-25.65Q577.22-27.15 577.9-28.18 578.57-29.2 580.37-30.15L580.37-30.15Q582.12-31.1 584.5-31.73 586.87-32.35 589.32-32.35L589.32-32.35Q594.17-32.35 597.1-29.8 600.02-27.25 600.02-23L600.02-23Q600.02-20.4 598.97-18.2 597.92-16 596.2-14.38 594.47-12.75 592.45-11.88 590.42-11 588.47-11L588.47-11Q586.62-11 585.97-11.83 585.32-12.65 585.32-14.2L585.32-14.2Q585.32-14.95 585.5-15.58 585.67-16.2 586.27-16.2L586.27-16.2Q586.42-16.2 586.72-16.15 587.02-16.1 587.32-16L587.32-16Q587.62-15.95 588.17-15.85 588.72-15.75 589.42-15.75L589.42-15.75Q592.17-15.75 593.9-17.3 595.62-18.85 595.62-21.3L595.62-21.3Q595.62-23.85 593.72-25.3 591.82-26.75 588.82-26.75L588.82-26.75Q587.72-26.75 586.57-26.58 585.42-26.4 584.27-26.1L584.27-26.1Q584.12-22.8 583.57-18.6L583.57-18.6Q583.27-16.1 583.05-13.68 582.82-11.25 582.82-9.25L582.82-9.25Q582.82-7.5 583.15-6.18 583.47-4.85 584.47-3.9L584.47-3.9Q585.17-3.2 585.17-2.4L585.17-2.4Q585.17-1.3 583.92-0.4 582.67 0.5 580.67 0.5ZM604.72 0.55L604.72 0.55Q603.92 0.55 603.45 0.28 602.97 0 603.12-0.65L603.12-0.65Q603.67-2.8 604.05-5.03 604.42-7.25 604.42-9.3L604.42-9.3Q604.42-11.95 604.1-13.18 603.77-14.4 603.22-14.88 602.67-15.35 601.87-15.6L601.87-15.6Q601.52-15.75 601.25-16 600.97-16.25 600.97-16.7L600.97-16.7Q600.97-17.4 601.52-18.25 602.07-19.1 603.07-19.73 604.07-20.35 605.37-20.35L605.37-20.35Q607.07-20.35 607.75-19.18 608.42-18 608.42-16.1L608.42-16.1Q609.32-18.1 610.65-19.28 611.97-20.45 613.97-20.45L613.97-20.45Q615.32-20.45 616.22-19.85 617.12-19.25 617.12-17.9L617.12-17.9Q617.12-16.55 616.25-15.38 615.37-14.2 614.47-14.2L614.47-14.2Q614.32-14.2 614.12-14.25 613.92-14.3 613.77-14.5L613.77-14.5Q613.12-15.3 612.17-15.3L612.17-15.3Q610.72-15.3 609.62-13.4 608.52-11.5 608.42-8.15L608.42-8.15Q608.47-6.9 608.5-5.6 608.52-4.3 608.52-3.7L608.52-3.7Q608.52-1.85 607.5-0.65 606.47 0.55 604.72 0.55ZM626.82 0.65L626.82 0.65Q623.37 0.65 621.29-1.23 619.22-3.1 619.22-6.75L619.22-6.75Q619.22-8.45 619.69-10.05 620.17-11.65 620.97-13.05L620.97-13.05Q620.17-12.55 619.77-12.55L619.77-12.55Q619.17-12.55 618.94-13.23 618.72-13.9 618.72-14.55L618.72-14.55Q618.72-15.7 619.19-16.38 619.67-17.05 620.12-17.4L620.12-17.4Q621.17-18.3 623.42-19.38 625.67-20.45 628.82-20.45L628.82-20.45Q633.12-20.45 635.49-18.05 637.87-15.65 637.87-11.35L637.87-11.35Q637.87-8 636.47-5.28 635.07-2.55 632.59-0.95 630.12 0.65 626.82 0.65ZM628.37-4.45L628.37-4.45Q630.87-4.45 632.59-6.03 634.32-7.6 634.32-10.2L634.32-10.2Q634.32-12.9 632.57-14.05 630.82-15.2 628.52-15.2L628.52-15.2Q627.47-15.2 626.62-15 625.77-14.8 625.02-14.5L625.02-14.5Q624.32-13.5 623.77-12.25 623.22-11 623.22-9.5L623.22-9.5Q623.22-7 624.72-5.73 626.22-4.45 628.37-4.45ZM647.97 0.65L647.97 0.65Q644.97 0.65 643.24-1.35 641.52-3.35 641.52-6.8L641.52-6.8Q641.52-9.35 642.34-11.8 643.17-14.25 644.67-16.2 646.17-18.15 648.17-19.3 650.17-20.45 652.52-20.45L652.52-20.45Q654.02-20.45 655.19-20 656.37-19.55 657.27-18.85L657.27-18.85Q657.22-22.25 656.92-24.95 656.62-27.65 655.47-29.95L655.47-29.95Q655.27-30.35 655.14-30.68 655.02-31 655.02-31.3L655.02-31.3Q655.02-32 655.59-32.6 656.17-33.2 657.02-33.6 657.87-34 658.62-34L658.62-34Q659.97-34 660.64-32.83 661.32-31.65 661.52-29.63 661.72-27.6 661.72-25L661.72-25Q661.72-21.2 661.37-18.15 661.02-15.1 660.72-12.8L660.72-12.8Q660.52-11.3 660.37-10.2 660.22-9.1 660.22-8.4L660.22-8.4Q660.22-4.85 663.27-4.2L663.27-4.2Q664.07-4.05 664.07-3.15L664.07-3.15Q664.07-2.6 663.74-1.75 663.42-0.9 662.57-0.23 661.72 0.45 660.12 0.45L660.12 0.45Q657.97 0.45 657.22-1 656.47-2.45 656.47-5.4L656.47-5.4Q655.07-2.85 652.92-1.1 650.77 0.65 647.97 0.65ZM649.52-4.7L649.52-4.7Q650.92-4.7 652.32-5.6 653.72-6.5 654.82-8.05L654.82-8.05Q655.47-9 655.99-10.23 656.52-11.45 656.97-12.7L656.97-12.7Q654.42-15 651.32-15L651.32-15Q648.62-15 647.02-13.38 645.42-11.75 645.42-9.35L645.42-9.35Q645.42-7.3 646.62-6 647.82-4.7 649.52-4.7ZM673.56 0.65L673.56 0.65Q671.06 0.65 669.69-0.8 668.31-2.25 668.31-5L668.31-5Q668.31-6.95 668.86-9L668.86-9Q669.11-9.85 669.26-10.7 669.41-11.55 669.41-12.4L669.41-12.4Q669.41-14.6 668.06-15.25L668.06-15.25Q666.76-15.95 666.76-16.75L666.76-16.75Q666.76-17.55 667.44-18.35 668.11-19.15 669.11-19.68 670.11-20.2 671.11-20.2L671.11-20.2Q673.96-20.2 673.96-15.55L673.96-15.55Q673.96-14.05 673.74-12.78 673.51-11.5 673.21-10.35L673.21-10.35Q673.01-9.55 672.89-8.75 672.76-7.95 672.76-7.35L672.76-7.35Q672.76-4.85 675.21-4.85L675.21-4.85Q677.51-4.85 679.51-7.3 681.51-9.75 682.81-14.15L682.81-14.15 682.76-15.1Q682.66-17.6 683.64-18.9 684.61-20.2 686.51-20.2L686.51-20.2Q688.16-20.2 688.16-19.15L688.16-19.15Q688.16-18.8 688.04-18.25 687.91-17.7 687.66-16.95L687.66-16.95Q687.16-15.1 686.81-13.03 686.46-10.95 686.46-9.2L686.46-9.2Q686.46-7.25 687.06-5.98 687.66-4.7 689.31-4.25L689.31-4.25Q689.76-4.2 690.04-3.98 690.31-3.75 690.31-3.05L690.31-3.05Q690.31-1.85 689.31-0.7 688.31 0.45 686.41 0.45L686.41 0.45Q682.76 0.45 682.76-4.7L682.76-4.7Q682.76-5.6 682.91-7.4L682.91-7.4 682.81-7.45Q679.66 0.65 673.56 0.65ZM700.41 0.65L700.41 0.65Q696.91 0.65 694.94-1.48 692.96-3.6 692.96-7.4L692.96-7.4Q692.96-11.15 694.56-14.1 696.16-17.05 698.96-18.75 701.76-20.45 705.31-20.45L705.31-20.45Q707.71-20.45 709.11-19.65 710.51-18.85 710.51-17.45L710.51-17.45Q710.51-16.2 709.31-15L709.31-15Q708.86-14.55 708.14-14.18 707.41-13.8 707.01-13.8L707.01-13.8Q706.56-13.8 706.26-14.15L706.26-14.15Q705.76-14.7 704.96-15.2 704.16-15.7 702.71-15.7L702.71-15.7Q700.26-15.7 698.71-14.03 697.16-12.35 697.16-9.65L697.16-9.65Q697.16-7.2 698.56-5.7 699.96-4.2 702.26-4.2L702.26-4.2Q703.46-4.2 704.89-4.63 706.31-5.05 707.41-5.85L707.41-5.85Q707.96-6.35 708.56-6.35L708.56-6.35Q709.56-6.35 709.56-5.1L709.56-5.1Q709.56-3.45 707.91-1.95L707.91-1.95Q706.66-0.8 704.59-0.08 702.51 0.65 700.41 0.65ZM720.71 0.65L720.71 0.65Q717.66 0.65 716.33-1.38 715.01-3.4 715.01-6.6L715.01-6.6Q715.01-7.75 715.13-8.85 715.26-9.95 715.41-11.05L715.41-11.05Q715.56-12.15 715.71-13.2 715.86-14.25 715.96-15.2L715.96-15.2Q714.91-14.9 713.86-14.9L713.86-14.9Q712.76-14.9 712.76-15.8L712.76-15.8Q712.76-16.75 713.61-18.13 714.46-19.5 715.73-20.85 717.01-22.2 718.28-23.13 719.56-24.05 720.46-24.05L720.46-24.05Q721.56-24.05 721.56-22.15L721.56-22.15Q721.56-21.65 721.48-21.13 721.41-20.6 721.31-20.05L721.31-20.05Q722.26-20.25 723.23-20.4 724.21-20.55 725.11-20.55L725.11-20.55Q726.26-20.55 726.88-20.15 727.51-19.75 727.51-18.6L727.51-18.6Q727.51-17.4 726.93-16.2 726.36-15 725.66-15L725.66-15Q725.51-15 725.16-15.05 724.81-15.1 724.31-15.2L724.31-15.2Q723.66-15.35 722.66-15.5 721.66-15.65 720.26-15.65L720.26-15.65Q719.91-14.1 719.63-12.48 719.36-10.85 719.36-9.55L719.36-9.55Q719.36-6.65 720.81-5.6 722.26-4.55 725.01-4.55L725.01-4.55Q725.86-4.55 726.21-4.28 726.56-4 726.56-3.3L726.56-3.3Q726.56-1.65 724.86-0.5 723.16 0.65 720.71 0.65ZM734.36-24.85L734.36-24.85Q732.96-24.9 732.11-25.7 731.26-26.5 731.26-27.95L731.26-27.95Q731.31-29.5 732.31-30.48 733.31-31.45 734.86-31.4L734.86-31.4Q736.31-31.35 737.13-30.55 737.96-29.75 737.91-28.3L737.91-28.3Q737.86-26.8 736.91-25.83 735.96-24.85 734.36-24.85ZM734.41 0.5L734.41 0.5Q732.91 0.5 732.06-0.33 731.21-1.15 731.21-3.15L731.21-3.15Q731.21-4.3 731.43-5.4 731.66-6.5 731.96-7.55L731.96-7.55Q732.31-8.65 732.53-9.8 732.76-10.95 732.76-12.25L732.76-12.25Q732.76-13.15 732.51-13.98 732.26-14.8 731.41-15.2L731.41-15.2Q730.76-15.55 730.28-15.93 729.81-16.3 729.81-16.9L729.81-16.9Q729.81-17.6 730.46-18.4 731.11-19.2 732.18-19.78 733.26-20.35 734.41-20.35L734.41-20.35Q735.66-20.35 736.23-19.7 736.81-19.05 737.01-18.05 737.21-17.05 737.21-16L737.21-16Q737.21-14.4 736.96-12.88 736.71-11.35 736.46-10.05L736.46-10.05Q736.26-9.1 736.16-8.3 736.06-7.5 736.06-6.8L736.06-6.8Q736.06-5.55 736.66-4.93 737.26-4.3 738.36-3.75L738.36-3.75Q738.81-3.5 738.81-3L738.81-3Q738.81-2.6 738.41-1.75 738.01-0.9 737.03-0.2 736.06 0.5 734.41 0.5ZM749.6 0.7L749.6 0.7Q748.25 0.7 747.28-0.13 746.3-0.95 746.1-3.2L746.1-3.2Q746-4.9 745.68-6.95 745.35-9 744.85-10.85 744.35-12.7 743.7-13.75L743.7-13.75Q743.35-14.3 742.93-14.58 742.5-14.85 741.65-14.95L741.65-14.95Q741.1-15 740.9-15.3 740.7-15.6 740.7-16.25L740.7-16.25Q740.7-18.3 741.83-19.28 742.95-20.25 744.4-20.25L744.4-20.25Q745.9-20.25 746.9-19.28 747.9-18.3 748.45-16.7 749-15.1 749.23-13.18 749.45-11.25 749.45-9.3L749.45-9.3Q749.45-8.5 749.43-7.63 749.4-6.75 749.4-6.15L749.4-6.15Q749.4-5.6 749.63-5.3 749.85-5 750.5-5L750.5-5Q751.3-5 752.35-5.48 753.4-5.95 754.43-6.85 755.45-7.75 756.13-8.97 756.8-10.2 756.8-11.7L756.8-11.7Q756.8-12.55 756.53-13.5 756.25-14.45 755.65-15.1L755.65-15.1Q755.05-15.75 754.78-16.13 754.5-16.5 754.5-17L754.5-17Q754.5-17.9 755.33-18.65 756.15-19.4 757.28-19.85 758.4-20.3 759.25-20.3L759.25-20.3Q760.7-20.3 761.1-19.1 761.5-17.9 761.5-16.45L761.5-16.45Q761.5-13.7 760.5-10.7 759.5-7.7 757.8-5.1 756.1-2.5 753.98-0.9 751.85 0.7 749.6 0.7ZM772.5 0.65L772.5 0.65Q768.7 0.65 766.58-1.53 764.45-3.7 764.45-7.6L764.45-7.6Q764.45-11.15 766-14.05 767.55-16.95 770.18-18.68 772.8-20.4 775.95-20.4L775.95-20.4Q778.95-20.4 780.75-18.93 782.55-17.45 782.55-15L782.55-15Q782.55-13.05 781.35-11.4 780.15-9.75 778.15-8.78 776.15-7.8 773.7-7.8L773.7-7.8Q770.7-7.8 768.8-9.15L768.8-9.15Q768.85-6.85 770.38-5.45 771.9-4.05 774.3-4.05L774.3-4.05Q775.75-4.05 777.28-4.58 778.8-5.1 779.9-6L779.9-6Q780.6-6.6 781.2-6.6L781.2-6.6Q781.7-6.6 782.03-6.28 782.35-5.95 782.35-5.45L782.35-5.45Q782.35-4.35 780.45-2.55L780.45-2.55Q777.1 0.65 772.5 0.65ZM773.25-11.1L773.25-11.1Q775.05-11.1 776.25-11.85 777.45-12.6 777.45-13.75L777.45-13.75Q777.45-14.7 776.65-15.23 775.85-15.75 774.45-15.75L774.45-15.75Q772.6-15.75 771.23-14.78 769.85-13.8 769.25-12.05L769.25-12.05Q769.95-11.6 771.05-11.35 772.15-11.1 773.25-11.1ZM809.6 0.65L809.6 0.65Q806.2 0.65 804.35-0.1 802.5-0.85 801.8-2.2 801.1-3.55 801.1-5.4L801.1-5.4Q801.1-6.3 801.25-7.43 801.4-8.55 801.6-10L801.6-10Q802.5-15.5 802.5-19.75L802.5-19.75Q802.5-22.55 802.27-24.53 802.05-26.5 800.95-28.3L800.95-28.3Q800.75-28.6 800.6-28.93 800.45-29.25 800.45-29.45L800.45-29.45Q800.45-30.05 801.15-30.7 801.85-31.35 802.85-31.8 803.85-32.25 804.75-32.25L804.75-32.25Q806.45-32.25 806.87-30.9 807.3-29.55 807.3-27.05L807.3-27.05Q807.3-26.1 807.1-24.03 806.9-21.95 806.5-18.75L806.5-18.75Q806.1-15.65 805.9-13.4 805.7-11.15 805.7-9.8L805.7-9.8Q805.7-7.8 806.17-6.78 806.65-5.75 807.75-5.35L807.75-5.35Q808.85-4.95 810.85-4.95L810.85-4.95Q813-4.95 814.95-5.33 816.9-5.7 818.75-6.5L818.75-6.5Q819-6.6 819.2-6.65 819.4-6.7 819.55-6.7L819.55-6.7Q820-6.7 820.4-6.15 820.8-5.6 820.8-4.6L820.8-4.6Q820.8-2.4 818.4-1.15L818.4-1.15Q815.2 0.65 809.6 0.65ZM827.39-24.85L827.39-24.85Q825.99-24.9 825.14-25.7 824.29-26.5 824.29-27.95L824.29-27.95Q824.34-29.5 825.34-30.48 826.34-31.45 827.89-31.4L827.89-31.4Q829.34-31.35 830.17-30.55 830.99-29.75 830.94-28.3L830.94-28.3Q830.89-26.8 829.94-25.83 828.99-24.85 827.39-24.85ZM827.44 0.5L827.44 0.5Q825.94 0.5 825.09-0.33 824.24-1.15 824.24-3.15L824.24-3.15Q824.24-4.3 824.47-5.4 824.69-6.5 824.99-7.55L824.99-7.55Q825.34-8.65 825.57-9.8 825.79-10.95 825.79-12.25L825.79-12.25Q825.79-13.15 825.54-13.98 825.29-14.8 824.44-15.2L824.44-15.2Q823.79-15.55 823.32-15.93 822.84-16.3 822.84-16.9L822.84-16.9Q822.84-17.6 823.49-18.4 824.14-19.2 825.22-19.78 826.29-20.35 827.44-20.35L827.44-20.35Q828.69-20.35 829.27-19.7 829.84-19.05 830.04-18.05 830.24-17.05 830.24-16L830.24-16Q830.24-14.4 829.99-12.88 829.74-11.35 829.49-10.05L829.49-10.05Q829.29-9.1 829.19-8.3 829.09-7.5 829.09-6.8L829.09-6.8Q829.09-5.55 829.69-4.93 830.29-4.3 831.39-3.75L831.39-3.75Q831.84-3.5 831.84-3L831.84-3Q831.84-2.6 831.44-1.75 831.04-0.9 830.07-0.2 829.09 0.5 827.44 0.5ZM838.54 9.6L838.54 9.6Q837.59 9.6 837.09 9.13 836.59 8.65 836.64 7.4L836.64 7.4Q836.64 6.65 836.77 4.73 836.89 2.8 837.12 0.18 837.34-2.45 837.62-5.3 837.89-8.15 838.14-10.8 838.39-13.45 838.59-15.35L838.59-15.35Q838.09-15.3 837.64-15.28 837.19-15.25 836.74-15.15L836.74-15.15Q836.24-15.05 835.99-15.05L835.99-15.05Q835.39-15.05 835.19-15.78 834.99-16.5 834.99-17.15L834.99-17.15Q834.99-17.9 835.22-18.4 835.44-18.9 836.19-19.2L836.19-19.2Q836.64-19.4 837.37-19.55 838.09-19.7 838.89-19.8L838.89-19.8Q839.14-22.75 839.67-25.4 840.19-28.05 841.29-29.9L841.29-29.9Q842.44-31.8 844.42-32.9 846.39-34 848.44-34L848.44-34Q849.94-34 851.27-33.43 852.59-32.85 853.42-31.83 854.24-30.8 854.24-29.5L854.24-29.5Q854.24-28.55 853.77-27.95 853.29-27.35 852.69-27.35L852.69-27.35Q852.44-27.35 852.14-27.45 851.84-27.55 851.54-27.65L851.54-27.65Q850.99-27.9 850.17-28.08 849.34-28.25 848.39-28.25L848.39-28.25Q846.44-28.25 845.32-27.2 844.19-26.15 843.62-24.33 843.04-22.5 842.69-20.1L842.69-20.1Q843.74-20.2 844.94-20.3 846.14-20.4 846.89-20.4L846.89-20.4Q848.09-20.4 848.77-20.03 849.44-19.65 849.44-18.6L849.44-18.6Q849.44-17.95 849.22-17.07 848.99-16.2 848.54-15.53 848.09-14.85 847.49-14.85L847.49-14.85Q847.24-14.85 846.64-15L846.64-15Q845.99-15.1 844.94-15.25 843.89-15.4 842.29-15.45L842.29-15.45Q842.09-13.3 841.97-10.68 841.84-8.05 841.84-5.15L841.84-5.15Q841.84-2 842.04 0.3 842.24 2.6 842.44 4.05L842.44 4.05Q842.54 4.7 842.59 5.2 842.64 5.7 842.64 6L842.64 6Q842.64 7.45 841.94 8.22 841.24 9 840.29 9.3 839.34 9.6 838.54 9.6ZM858.09 0.65L858.09 0.65Q854.29 0.65 852.16-1.53 850.04-3.7 850.04-7.6L850.04-7.6Q850.04-11.15 851.59-14.05 853.14-16.95 855.76-18.68 858.39-20.4 861.54-20.4L861.54-20.4Q864.54-20.4 866.34-18.93 868.14-17.45 868.14-15L868.14-15Q868.14-13.05 866.94-11.4 865.74-9.75 863.74-8.78 861.74-7.8 859.29-7.8L859.29-7.8Q856.29-7.8 854.39-9.15L854.39-9.15Q854.44-6.85 855.96-5.45 857.49-4.05 859.89-4.05L859.89-4.05Q861.34-4.05 862.86-4.58 864.39-5.1 865.49-6L865.49-6Q866.19-6.6 866.79-6.6L866.79-6.6Q867.29-6.6 867.61-6.28 867.94-5.95 867.94-5.45L867.94-5.45Q867.94-4.35 866.04-2.55L866.04-2.55Q862.69 0.65 858.09 0.65ZM858.84-11.1L858.84-11.1Q860.64-11.1 861.84-11.85 863.04-12.6 863.04-13.75L863.04-13.75Q863.04-14.7 862.24-15.23 861.44-15.75 860.04-15.75L860.04-15.75Q858.19-15.75 856.81-14.78 855.44-13.8 854.84-12.05L854.84-12.05Q855.54-11.6 856.64-11.35 857.74-11.1 858.84-11.1Z" opacity="1" transform="matrix(1,0,0,1,0,0)" fill="#ffffff" class="slogan-text-1" data-fill-palette-color="quaternary" id="text-1"></path></svg></g></svg></g></svg></g></svg></g><g transform="matrix(1,0,0,1,68.80975050902913,0)"><svg viewBox="0 0 75.53894020909887 87.58137983703443" height="87.58137983703443" width="75.53894020909887"><g><svg xmlns="http://www.w3.org/2000/svg" xmlns:xlink="http://www.w3.org/1999/xlink" version="1.1" x="0" y="0" viewBox="15.999999908970002 10 69.00000009103 80" enable-background="new 0 0 100 100" xml:space="preserve" height="87.58137983703443" width="75.53894020909887" class="icon-icon-0" data-fill-palette-color="quaternary" id="icon-0"><g fill="#ffffff" data-fill-palette-color="quaternary"><path d="M85 15.614C85 12.514 82.487 10 79.387 10H21.613A5.614 5.614 0 0 0 16 15.614V84.385A5.614 5.614 0 0 0 21.613 90H79.386A5.614 5.614 0 0 0 85 84.386zM74 79H27V21H74z" fill="#ffffff" data-fill-palette-color="quaternary"></path><path d="M36.523 55H64.596C67.697 55 70.21 52.6 70.21 49.5S67.697 44 64.597 44H36.523C33.422 44 30.909 46.4 30.909 49.5S33.423 55 36.523 55" fill="#ffffff" data-fill-palette-color="quaternary"></path><path d="M36.523 72H64.596C67.697 72 70.21 69.6 70.21 66.5S67.697 61 64.597 61H36.523C33.422 61 30.909 63.4 30.909 66.5S33.423 72 36.523 72" fill="#ffffff" data-fill-palette-color="quaternary"></path><path d="M36.523 38H64.596C67.697 38 70.21 35.601 70.21 32.5S67.697 27 64.597 27H36.523C33.422 27 30.909 29.399 30.909 32.5S33.423 38 36.523 38" fill="#ffffff" data-fill-palette-color="quaternary"></path></g></svg></g></svg></g><g></g></svg></g></svg></g></svg></g></svg></g><defs></defs></svg><rect width="342.85155851775386" height="342.85155851775386" fill="none" stroke="none" visibility="hidden"></rect></g></svg></g></svg>